<mxfile host="65bd71144e">
    <diagram id="ZZ86x_CATwEXQEdTxJgp" name="diagramme_main_algo">
        <mxGraphModel dx="1143" dy="1036" grid="1" gridSize="10" guides="1" tooltips="1" connect="1" arrows="1" fold="1" page="1" pageScale="1" pageWidth="827" pageHeight="1169" math="0" shadow="0">
            <root>
                <mxCell id="_tmstDa1uL1WL1FxBdm2-0"/>
                <mxCell id="_tmstDa1uL1WL1FxBdm2-1" parent="_tmstDa1uL1WL1FxBdm2-0"/>
                <mxCell id="_tmstDa1uL1WL1FxBdm2-7" style="edgeStyle=none;html=1;exitX=0.5;exitY=1;exitDx=0;exitDy=0;entryX=0.5;entryY=0;entryDx=0;entryDy=0;" edge="1" parent="_tmstDa1uL1WL1FxBdm2-1" target="_tmstDa1uL1WL1FxBdm2-4">
                    <mxGeometry relative="1" as="geometry">
                        <mxPoint x="330" y="100" as="sourcePoint"/>
                    </mxGeometry>
                </mxCell>
                <mxCell id="_tmstDa1uL1WL1FxBdm2-11" value="" style="edgeStyle=none;html=1;" edge="1" parent="_tmstDa1uL1WL1FxBdm2-1" source="_tmstDa1uL1WL1FxBdm2-6" target="_tmstDa1uL1WL1FxBdm2-10">
                    <mxGeometry relative="1" as="geometry"/>
                </mxCell>
                <mxCell id="_tmstDa1uL1WL1FxBdm2-13" value="" style="edgeStyle=none;html=1;" edge="1" parent="_tmstDa1uL1WL1FxBdm2-1" source="_tmstDa1uL1WL1FxBdm2-10" target="_tmstDa1uL1WL1FxBdm2-12">
                    <mxGeometry relative="1" as="geometry"/>
                </mxCell>
                <mxCell id="_tmstDa1uL1WL1FxBdm2-22" style="edgeStyle=none;html=1;exitX=1;exitY=0.5;exitDx=0;exitDy=0;endArrow=classic;endFill=1;entryX=0.5;entryY=0;entryDx=0;entryDy=0;" edge="1" parent="_tmstDa1uL1WL1FxBdm2-1" source="_tmstDa1uL1WL1FxBdm2-10" target="_tmstDa1uL1WL1FxBdm2-24">
                    <mxGeometry relative="1" as="geometry">
                        <mxPoint x="610" y="260" as="targetPoint"/>
                        <Array as="points">
                            <mxPoint x="480" y="495"/>
                            <mxPoint x="480" y="240"/>
                            <mxPoint x="610" y="240"/>
                        </Array>
                    </mxGeometry>
                </mxCell>
                <mxCell id="_tmstDa1uL1WL1FxBdm2-10" value="Création du pool de worker" style="whiteSpace=wrap;html=1;rounded=0;" vertex="1" parent="_tmstDa1uL1WL1FxBdm2-1">
                    <mxGeometry x="269.5" y="465" width="120" height="60" as="geometry"/>
                </mxCell>
                <mxCell id="_tmstDa1uL1WL1FxBdm2-17" style="edgeStyle=none;html=1;exitX=0.5;exitY=1;exitDx=0;exitDy=0;entryX=0.5;entryY=0;entryDx=0;entryDy=0;endArrow=classic;endFill=1;" edge="1" parent="_tmstDa1uL1WL1FxBdm2-1" source="_tmstDa1uL1WL1FxBdm2-12" target="_tmstDa1uL1WL1FxBdm2-14">
                    <mxGeometry relative="1" as="geometry"/>
                </mxCell>
                <mxCell id="_tmstDa1uL1WL1FxBdm2-12" value="Écoute du port&amp;nbsp;" style="whiteSpace=wrap;html=1;rounded=0;" vertex="1" parent="_tmstDa1uL1WL1FxBdm2-1">
                    <mxGeometry x="269.5" y="590" width="120" height="60" as="geometry"/>
                </mxCell>
                <mxCell id="_tmstDa1uL1WL1FxBdm2-15" style="edgeStyle=none;html=1;exitX=1;exitY=0.5;exitDx=0;exitDy=0;endArrow=classic;endFill=1;" edge="1" parent="_tmstDa1uL1WL1FxBdm2-1" source="_tmstDa1uL1WL1FxBdm2-14">
                    <mxGeometry relative="1" as="geometry">
                        <mxPoint x="329.5" y="550" as="targetPoint"/>
                        <Array as="points">
                            <mxPoint x="439.5" y="740"/>
                            <mxPoint x="439.5" y="550"/>
                        </Array>
                    </mxGeometry>
                </mxCell>
                <mxCell id="_tmstDa1uL1WL1FxBdm2-16" value="Non" style="edgeLabel;html=1;align=center;verticalAlign=middle;resizable=0;points=[];" vertex="1" connectable="0" parent="_tmstDa1uL1WL1FxBdm2-15">
                    <mxGeometry x="-0.3859" y="-1" relative="1" as="geometry">
                        <mxPoint as="offset"/>
                    </mxGeometry>
                </mxCell>
                <mxCell id="_tmstDa1uL1WL1FxBdm2-18" style="edgeStyle=none;html=1;exitX=0.5;exitY=1;exitDx=0;exitDy=0;endArrow=classic;endFill=1;" edge="1" parent="_tmstDa1uL1WL1FxBdm2-1" source="_tmstDa1uL1WL1FxBdm2-14">
                    <mxGeometry relative="1" as="geometry">
                        <mxPoint x="329.5" y="830" as="targetPoint"/>
                    </mxGeometry>
                </mxCell>
                <mxCell id="_tmstDa1uL1WL1FxBdm2-20" value="Oui" style="edgeLabel;html=1;align=center;verticalAlign=middle;resizable=0;points=[];" vertex="1" connectable="0" parent="_tmstDa1uL1WL1FxBdm2-18">
                    <mxGeometry x="-0.35" y="1" relative="1" as="geometry">
                        <mxPoint x="-1" as="offset"/>
                    </mxGeometry>
                </mxCell>
                <mxCell id="_tmstDa1uL1WL1FxBdm2-14" value="Requête client" style="rhombus;whiteSpace=wrap;html=1;" vertex="1" parent="_tmstDa1uL1WL1FxBdm2-1">
                    <mxGeometry x="274.5" y="690" width="110" height="100" as="geometry"/>
                </mxCell>
                <mxCell id="_tmstDa1uL1WL1FxBdm2-21" style="edgeStyle=none;html=1;exitX=0.5;exitY=1;exitDx=0;exitDy=0;endArrow=classic;endFill=1;" edge="1" parent="_tmstDa1uL1WL1FxBdm2-1" source="_tmstDa1uL1WL1FxBdm2-19">
                    <mxGeometry relative="1" as="geometry">
                        <mxPoint x="329.5" y="560" as="targetPoint"/>
                        <Array as="points">
                            <mxPoint x="329.5" y="910"/>
                            <mxPoint x="219.5" y="910"/>
                            <mxPoint x="219.5" y="560"/>
                        </Array>
                    </mxGeometry>
                </mxCell>
                <mxCell id="_tmstDa1uL1WL1FxBdm2-19" value="Ajout dans la queue et modification des sémaphores" style="rounded=0;whiteSpace=wrap;html=1;" vertex="1" parent="_tmstDa1uL1WL1FxBdm2-1">
                    <mxGeometry x="269.5" y="830" width="120" height="60" as="geometry"/>
                </mxCell>
                <mxCell id="_tmstDa1uL1WL1FxBdm2-25" style="edgeStyle=none;html=1;exitX=1;exitY=0.5;exitDx=0;exitDy=0;endArrow=classic;endFill=1;" edge="1" parent="_tmstDa1uL1WL1FxBdm2-1">
                    <mxGeometry relative="1" as="geometry">
                        <mxPoint x="550" y="239" as="targetPoint"/>
                        <mxPoint x="690" y="339" as="sourcePoint"/>
                        <Array as="points">
                            <mxPoint x="690" y="199"/>
                            <mxPoint x="550" y="199"/>
                        </Array>
                    </mxGeometry>
                </mxCell>
                <mxCell id="_tmstDa1uL1WL1FxBdm2-26" value="Oui" style="edgeLabel;html=1;align=center;verticalAlign=middle;resizable=0;points=[];" vertex="1" connectable="0" parent="_tmstDa1uL1WL1FxBdm2-25">
                    <mxGeometry x="0.2563" y="3" relative="1" as="geometry">
                        <mxPoint y="-3" as="offset"/>
                    </mxGeometry>
                </mxCell>
                <mxCell id="_tmstDa1uL1WL1FxBdm2-29" value="Non" style="edgeStyle=none;html=1;endArrow=classic;endFill=1;" edge="1" parent="_tmstDa1uL1WL1FxBdm2-1" source="_tmstDa1uL1WL1FxBdm2-24" target="_tmstDa1uL1WL1FxBdm2-28">
                    <mxGeometry relative="1" as="geometry"/>
                </mxCell>
                <mxCell id="_tmstDa1uL1WL1FxBdm2-24" value="La queue est elle vide ?" style="rhombus;whiteSpace=wrap;html=1;" vertex="1" parent="_tmstDa1uL1WL1FxBdm2-1">
                    <mxGeometry x="530" y="260" width="160" height="160" as="geometry"/>
                </mxCell>
                <mxCell id="_tmstDa1uL1WL1FxBdm2-31" value="" style="edgeStyle=none;html=1;endArrow=classic;endFill=1;" edge="1" parent="_tmstDa1uL1WL1FxBdm2-1" source="_tmstDa1uL1WL1FxBdm2-28" target="_tmstDa1uL1WL1FxBdm2-30">
                    <mxGeometry relative="1" as="geometry"/>
                </mxCell>
                <mxCell id="_tmstDa1uL1WL1FxBdm2-28" value="Récupère le numéreau de protection avec le mutex" style="whiteSpace=wrap;html=1;" vertex="1" parent="_tmstDa1uL1WL1FxBdm2-1">
                    <mxGeometry x="550" y="550" width="120" height="60" as="geometry"/>
                </mxCell>
                <mxCell id="_tmstDa1uL1WL1FxBdm2-33" value="" style="edgeStyle=none;html=1;endArrow=classic;endFill=1;" edge="1" parent="_tmstDa1uL1WL1FxBdm2-1" source="_tmstDa1uL1WL1FxBdm2-30" target="_tmstDa1uL1WL1FxBdm2-32">
                    <mxGeometry relative="1" as="geometry"/>
                </mxCell>
                <mxCell id="_tmstDa1uL1WL1FxBdm2-30" value="Traite la connection" style="whiteSpace=wrap;html=1;" vertex="1" parent="_tmstDa1uL1WL1FxBdm2-1">
                    <mxGeometry x="550" y="690" width="120" height="60" as="geometry"/>
                </mxCell>
                <mxCell id="_tmstDa1uL1WL1FxBdm2-34" style="edgeStyle=none;html=1;exitX=0.5;exitY=1;exitDx=0;exitDy=0;endArrow=classic;endFill=1;" edge="1" parent="_tmstDa1uL1WL1FxBdm2-1" source="_tmstDa1uL1WL1FxBdm2-32">
                    <mxGeometry relative="1" as="geometry">
                        <mxPoint x="520" y="240" as="targetPoint"/>
                        <Array as="points">
                            <mxPoint x="610" y="920"/>
                            <mxPoint x="520" y="920"/>
                        </Array>
                    </mxGeometry>
                </mxCell>
                <mxCell id="_tmstDa1uL1WL1FxBdm2-32" value="Ferme la connection et modifie les sémaphores" style="whiteSpace=wrap;html=1;" vertex="1" parent="_tmstDa1uL1WL1FxBdm2-1">
                    <mxGeometry x="550" y="830" width="120" height="60" as="geometry"/>
                </mxCell>
                <mxCell id="_tmstDa1uL1WL1FxBdm2-35" value="main" style="swimlane;" vertex="1" parent="_tmstDa1uL1WL1FxBdm2-1">
                    <mxGeometry x="235" y="20" width="195" height="370" as="geometry"/>
                </mxCell>
                <mxCell id="_tmstDa1uL1WL1FxBdm2-3" value="Début wserver" style="rounded=1;whiteSpace=wrap;html=1;" vertex="1" parent="_tmstDa1uL1WL1FxBdm2-35">
                    <mxGeometry x="30" y="50" width="120" height="40" as="geometry"/>
                </mxCell>
                <mxCell id="_tmstDa1uL1WL1FxBdm2-6" value="Initialisation du master thread et ouverture du port d'écoute sur le port défini" style="rounded=0;whiteSpace=wrap;html=1;" vertex="1" parent="_tmstDa1uL1WL1FxBdm2-35">
                    <mxGeometry x="24.5" y="290" width="140" height="60" as="geometry"/>
                </mxCell>
                <mxCell id="_tmstDa1uL1WL1FxBdm2-5" value="Vérification du répertoir de travail" style="rounded=0;whiteSpace=wrap;html=1;" vertex="1" parent="_tmstDa1uL1WL1FxBdm2-35">
                    <mxGeometry x="34.5" y="200" width="120" height="60" as="geometry"/>
                </mxCell>
                <mxCell id="_tmstDa1uL1WL1FxBdm2-4" value="Extraction des paramètres" style="rounded=0;whiteSpace=wrap;html=1;" vertex="1" parent="_tmstDa1uL1WL1FxBdm2-35">
                    <mxGeometry x="34.5" y="110" width="120" height="60" as="geometry"/>
                </mxCell>
                <mxCell id="_tmstDa1uL1WL1FxBdm2-9" style="edgeStyle=none;html=1;exitX=0.5;exitY=1;exitDx=0;exitDy=0;entryX=0.5;entryY=0;entryDx=0;entryDy=0;" edge="1" parent="_tmstDa1uL1WL1FxBdm2-35" source="_tmstDa1uL1WL1FxBdm2-5" target="_tmstDa1uL1WL1FxBdm2-6">
                    <mxGeometry relative="1" as="geometry"/>
                </mxCell>
                <mxCell id="_tmstDa1uL1WL1FxBdm2-8" style="edgeStyle=none;html=1;exitX=0.5;exitY=1;exitDx=0;exitDy=0;entryX=0.5;entryY=0;entryDx=0;entryDy=0;" edge="1" parent="_tmstDa1uL1WL1FxBdm2-35" source="_tmstDa1uL1WL1FxBdm2-4" target="_tmstDa1uL1WL1FxBdm2-5">
                    <mxGeometry relative="1" as="geometry"/>
                </mxCell>
                <mxCell id="_tmstDa1uL1WL1FxBdm2-38" value="Pour chaque worker thread" style="swimlane;" vertex="1" parent="_tmstDa1uL1WL1FxBdm2-1">
                    <mxGeometry x="500" y="160" width="230" height="790" as="geometry"/>
                </mxCell>
                <mxCell id="_tmstDa1uL1WL1FxBdm2-39" value="Main thread" style="swimlane;" vertex="1" parent="_tmstDa1uL1WL1FxBdm2-1">
                    <mxGeometry x="199.5" y="410" width="260" height="520" as="geometry"/>
                </mxCell>
            </root>
        </mxGraphModel>
    </diagram>
    <diagram id="OaMemuIT_qWkSEGsqr9d" name="diagramme_composants">
        <mxGraphModel grid="0" gridSize="10" guides="1" tooltips="1" connect="1" arrows="1" page="1" fold="1" pageScale="1" pageWidth="827" pageHeight="1169" background="none" math="0" shadow="0">
            <root>
                <mxCell id="0"/>
                <mxCell id="1" parent="0"/>
                <mxCell id="2" value="Diagramme des composants" style="shape=umlFrame;whiteSpace=wrap;html=1;width=120;height=30;boundedLbl=1;verticalAlign=middle;align=left;spacingLeft=5;shadow=1;" parent="1" vertex="1">
                    <mxGeometry x="19" y="10" width="790" height="620" as="geometry"/>
                </mxCell>
                <mxCell id="3" value="io_helper" style="swimlane;fontStyle=1;align=center;verticalAlign=middle;childLayout=stackLayout;horizontal=1;startSize=29;horizontalStack=0;resizeParent=1;resizeParentMax=0;resizeLast=0;collapsible=0;marginBottom=0;html=1;" parent="1" vertex="1">
                    <mxGeometry x="50" y="65" width="400" height="104" as="geometry"/>
                </mxCell>
                <mxCell id="5" value="&lt;div style=&quot;color: rgb(238, 255, 255); font-family: menlo, monaco, &amp;quot;courier new&amp;quot;, monospace; line-height: 18px;&quot;&gt;&lt;div style=&quot;font-family: &amp;quot;menlo&amp;quot; , &amp;quot;monaco&amp;quot; , &amp;quot;courier new&amp;quot; , monospace ; line-height: 18px&quot;&gt;&lt;span style=&quot;color: #ffcb6b&quot;&gt;ssize_t&lt;/span&gt; &lt;span style=&quot;color: #82aaff&quot;&gt;readline&lt;/span&gt;&lt;span style=&quot;color: #89ddff&quot;&gt;(&lt;/span&gt;&lt;span style=&quot;color: #c792ea&quot;&gt;int&lt;/span&gt; fd&lt;span style=&quot;color: #89ddff&quot;&gt;,&lt;/span&gt; &lt;span style=&quot;color: #c792ea&quot;&gt;void&lt;/span&gt; &lt;span style=&quot;color: #89ddff&quot;&gt;*&lt;/span&gt;buf&lt;span style=&quot;color: #89ddff&quot;&gt;,&lt;/span&gt; &lt;span style=&quot;color: #ffcb6b&quot;&gt;size_t&lt;/span&gt; maxlen&lt;span style=&quot;color: #89ddff&quot;&gt;)&lt;/span&gt;&lt;/div&gt;&lt;/div&gt;" style="text;html=1;align=left;verticalAlign=middle;spacingLeft=4;spacingRight=4;overflow=hidden;rotatable=0;points=[[0,0.5],[1,0.5]];portConstraint=eastwest;" parent="3" vertex="1">
                    <mxGeometry y="29" width="400" height="25" as="geometry"/>
                </mxCell>
                <mxCell id="6" value="&lt;div style=&quot;color: rgb(238, 255, 255); font-family: menlo, monaco, &amp;quot;courier new&amp;quot;, monospace; line-height: 18px;&quot;&gt;&lt;div style=&quot;font-family: &amp;quot;menlo&amp;quot; , &amp;quot;monaco&amp;quot; , &amp;quot;courier new&amp;quot; , monospace ; line-height: 18px&quot;&gt;&lt;span style=&quot;color: #c792ea&quot;&gt;int&lt;/span&gt; &lt;span style=&quot;color: #82aaff&quot;&gt;open_client_fd&lt;/span&gt;&lt;span style=&quot;color: #89ddff&quot;&gt;(&lt;/span&gt;&lt;span style=&quot;color: #c792ea&quot;&gt;char&lt;/span&gt; &lt;span style=&quot;color: #89ddff&quot;&gt;*&lt;/span&gt;hostname&lt;span style=&quot;color: #89ddff&quot;&gt;,&lt;/span&gt; &lt;span style=&quot;color: #c792ea&quot;&gt;int&lt;/span&gt; port&lt;span style=&quot;color: #89ddff&quot;&gt;)&lt;/span&gt;&lt;/div&gt;&lt;/div&gt;" style="text;html=1;strokeColor=none;fillColor=none;align=left;verticalAlign=middle;spacingLeft=4;spacingRight=4;overflow=hidden;rotatable=0;points=[[0,0.5],[1,0.5]];portConstraint=eastwest;" parent="3" vertex="1">
                    <mxGeometry y="54" width="400" height="25" as="geometry"/>
                </mxCell>
                <mxCell id="7" value="&lt;div style=&quot;color: rgb(238, 255, 255); font-family: menlo, monaco, &amp;quot;courier new&amp;quot;, monospace; line-height: 18px;&quot;&gt;&lt;div style=&quot;font-family: &amp;quot;menlo&amp;quot; , &amp;quot;monaco&amp;quot; , &amp;quot;courier new&amp;quot; , monospace ; line-height: 18px&quot;&gt;&lt;span style=&quot;color: #c792ea&quot;&gt;int&lt;/span&gt; &lt;span style=&quot;color: #82aaff&quot;&gt;open_listen_fd&lt;/span&gt;&lt;span style=&quot;color: #89ddff&quot;&gt;(&lt;/span&gt;&lt;span style=&quot;color: #c792ea&quot;&gt;int&lt;/span&gt; port&lt;span style=&quot;color: #89ddff&quot;&gt;)&lt;/span&gt;&lt;/div&gt;&lt;/div&gt;" style="text;html=1;strokeColor=none;fillColor=none;align=left;verticalAlign=middle;spacingLeft=4;spacingRight=4;overflow=hidden;rotatable=0;points=[[0,0.5],[1,0.5]];portConstraint=eastwest;" parent="3" vertex="1">
                    <mxGeometry y="79" width="400" height="25" as="geometry"/>
                </mxCell>
                <mxCell id="8" value="request" style="swimlane;fontStyle=1;align=center;verticalAlign=middle;childLayout=stackLayout;horizontal=1;startSize=29;horizontalStack=0;resizeParent=1;resizeParentMax=0;resizeLast=0;collapsible=0;marginBottom=0;html=1;" parent="1" vertex="1">
                    <mxGeometry x="550" y="90" width="220" height="54" as="geometry"/>
                </mxCell>
                <mxCell id="10" value="&lt;div style=&quot;color: rgb(238, 255, 255); font-family: menlo, monaco, &amp;quot;courier new&amp;quot;, monospace; line-height: 18px;&quot;&gt;&lt;span style=&quot;color: #c792ea&quot;&gt;void&lt;/span&gt; &lt;span style=&quot;color: #82aaff&quot;&gt;request_handle&lt;/span&gt;&lt;span style=&quot;color: #89ddff&quot;&gt;(&lt;/span&gt;&lt;span style=&quot;color: #c792ea&quot;&gt;int&lt;/span&gt; fd&lt;span style=&quot;color: #89ddff&quot;&gt;)&lt;/span&gt;&lt;/div&gt;" style="text;html=1;strokeColor=none;fillColor=none;align=left;verticalAlign=middle;spacingLeft=4;spacingRight=4;overflow=hidden;rotatable=0;points=[[0,0.5],[1,0.5]];portConstraint=eastwest;" parent="8" vertex="1">
                    <mxGeometry y="29" width="220" height="25" as="geometry"/>
                </mxCell>
                <mxCell id="13" value="wserver" style="swimlane;fontStyle=1;align=center;verticalAlign=middle;childLayout=stackLayout;horizontal=1;startSize=29;horizontalStack=0;resizeParent=1;resizeParentMax=0;resizeLast=0;collapsible=0;marginBottom=0;html=1;" parent="1" vertex="1">
                    <mxGeometry x="129" y="250" width="570" height="179" as="geometry"/>
                </mxCell>
                <mxCell id="15" value="&lt;div style=&quot;color: rgb(238, 255, 255); font-family: menlo, monaco, &amp;quot;courier new&amp;quot;, monospace; line-height: 18px;&quot;&gt;&lt;span style=&quot;color: #c792ea&quot;&gt;void&lt;/span&gt; &lt;span style=&quot;color: #82aaff&quot;&gt;add_to_queue&lt;/span&gt;&lt;span style=&quot;color: #89ddff&quot;&gt;(&lt;/span&gt;&lt;span style=&quot;color: #ffcb6b&quot;&gt;Queue&lt;/span&gt; &lt;span style=&quot;color: #89ddff&quot;&gt;*&lt;/span&gt;queue&lt;span style=&quot;color: #89ddff&quot;&gt;,&lt;/span&gt; &lt;span style=&quot;color: #c792ea&quot;&gt;int&lt;/span&gt; newConnection&lt;span style=&quot;color: #89ddff&quot;&gt;)&lt;/span&gt;&lt;/div&gt;" style="text;html=1;strokeColor=none;fillColor=none;align=left;verticalAlign=middle;spacingLeft=4;spacingRight=4;overflow=hidden;rotatable=0;points=[[0,0.5],[1,0.5]];portConstraint=eastwest;" parent="13" vertex="1">
                    <mxGeometry y="29" width="570" height="25" as="geometry"/>
                </mxCell>
                <mxCell id="16" value="&lt;div style=&quot;color: rgb(238, 255, 255); font-family: menlo, monaco, &amp;quot;courier new&amp;quot;, monospace; line-height: 18px;&quot;&gt;&lt;div style=&quot;font-family: &amp;quot;menlo&amp;quot; , &amp;quot;monaco&amp;quot; , &amp;quot;courier new&amp;quot; , monospace ; line-height: 18px&quot;&gt;&lt;span style=&quot;color: #c792ea&quot;&gt;int&lt;/span&gt; &lt;span style=&quot;color: #82aaff&quot;&gt;dequeue&lt;/span&gt;&lt;span style=&quot;color: #89ddff&quot;&gt;(&lt;/span&gt;&lt;span style=&quot;color: #ffcb6b&quot;&gt;Queue&lt;/span&gt; &lt;span style=&quot;color: #89ddff&quot;&gt;*&lt;/span&gt;queue&lt;span style=&quot;color: #89ddff&quot;&gt;)&lt;/span&gt;&lt;/div&gt;&lt;/div&gt;" style="text;html=1;strokeColor=none;fillColor=none;align=left;verticalAlign=middle;spacingLeft=4;spacingRight=4;overflow=hidden;rotatable=0;points=[[0,0.5],[1,0.5]];portConstraint=eastwest;" parent="13" vertex="1">
                    <mxGeometry y="54" width="570" height="25" as="geometry"/>
                </mxCell>
                <mxCell id="17" value="&lt;div style=&quot;color: rgb(238, 255, 255); font-family: menlo, monaco, &amp;quot;courier new&amp;quot;, monospace; line-height: 18px;&quot;&gt;&lt;div style=&quot;font-family: &amp;quot;menlo&amp;quot; , &amp;quot;monaco&amp;quot; , &amp;quot;courier new&amp;quot; , monospace ; line-height: 18px&quot;&gt;&lt;div style=&quot;font-family: &amp;quot;menlo&amp;quot; , &amp;quot;monaco&amp;quot; , &amp;quot;courier new&amp;quot; , monospace ; line-height: 18px&quot;&gt;&lt;span style=&quot;color: #c792ea&quot;&gt;void&lt;/span&gt; &lt;span style=&quot;color: #89ddff&quot;&gt;*&lt;/span&gt;&lt;span style=&quot;color: #82aaff&quot;&gt;worker_thread_function&lt;/span&gt;&lt;span style=&quot;color: #89ddff&quot;&gt;(&lt;/span&gt;&lt;span style=&quot;color: #c792ea&quot;&gt;void&lt;/span&gt; &lt;span style=&quot;color: #89ddff&quot;&gt;*&lt;/span&gt;queueVoid&lt;span style=&quot;color: #89ddff&quot;&gt;)&lt;/span&gt;&lt;/div&gt;&lt;/div&gt;&lt;/div&gt;" style="text;html=1;strokeColor=none;fillColor=none;align=left;verticalAlign=middle;spacingLeft=4;spacingRight=4;overflow=hidden;rotatable=0;points=[[0,0.5],[1,0.5]];portConstraint=eastwest;" parent="13" vertex="1">
                    <mxGeometry y="79" width="570" height="25" as="geometry"/>
                </mxCell>
                <mxCell id="18" value="&lt;div style=&quot;color: rgb(238, 255, 255); font-family: menlo, monaco, &amp;quot;courier new&amp;quot;, monospace; line-height: 18px;&quot;&gt;&lt;div style=&quot;font-family: &amp;quot;menlo&amp;quot; , &amp;quot;monaco&amp;quot; , &amp;quot;courier new&amp;quot; , monospace ; line-height: 18px&quot;&gt;&lt;div style=&quot;font-family: &amp;quot;menlo&amp;quot; , &amp;quot;monaco&amp;quot; , &amp;quot;courier new&amp;quot; , monospace ; line-height: 18px&quot;&gt;&lt;span style=&quot;color: #c792ea&quot;&gt;void&lt;/span&gt; &lt;span style=&quot;color: #82aaff&quot;&gt;create_connection&lt;/span&gt;&lt;span style=&quot;color: #89ddff&quot;&gt;(&lt;/span&gt;&lt;span style=&quot;color: #c792ea&quot;&gt;char&lt;/span&gt; &lt;span style=&quot;color: #89ddff&quot;&gt;*&lt;/span&gt;root_dir&lt;span style=&quot;color: #89ddff&quot;&gt;,&lt;/span&gt; &lt;span style=&quot;color: #c792ea&quot;&gt;int&lt;/span&gt; port&lt;span style=&quot;color: #89ddff&quot;&gt;,&lt;/span&gt; &lt;span style=&quot;color: #c792ea&quot;&gt;int&lt;/span&gt; listen_fd&lt;span style=&quot;color: #89ddff&quot;&gt;,&lt;/span&gt; &lt;span style=&quot;color: #ffcb6b&quot;&gt;Queue&lt;/span&gt; &lt;span style=&quot;color: #89ddff&quot;&gt;*&lt;/span&gt;queue&lt;span style=&quot;color: #89ddff&quot;&gt;)&lt;/span&gt;&lt;/div&gt;&lt;/div&gt;&lt;/div&gt;" style="text;html=1;strokeColor=none;fillColor=none;align=left;verticalAlign=middle;spacingLeft=4;spacingRight=4;overflow=hidden;rotatable=0;points=[[0,0.5],[1,0.5]];portConstraint=eastwest;" parent="13" vertex="1">
                    <mxGeometry y="104" width="570" height="25" as="geometry"/>
                </mxCell>
                <mxCell id="19" value="&lt;div style=&quot;color: rgb(238, 255, 255); font-family: menlo, monaco, &amp;quot;courier new&amp;quot;, monospace; line-height: 18px;&quot;&gt;&lt;div style=&quot;font-family: &amp;quot;menlo&amp;quot; , &amp;quot;monaco&amp;quot; , &amp;quot;courier new&amp;quot; , monospace ; line-height: 18px&quot;&gt;&lt;div style=&quot;font-family: &amp;quot;menlo&amp;quot; , &amp;quot;monaco&amp;quot; , &amp;quot;courier new&amp;quot; , monospace ; line-height: 18px&quot;&gt;&lt;span style=&quot;color: #c792ea&quot;&gt;void&lt;/span&gt; &lt;span style=&quot;color: #89ddff&quot;&gt;*&lt;/span&gt;&lt;span style=&quot;color: #82aaff&quot;&gt;master_thread_function&lt;/span&gt;&lt;span style=&quot;color: #89ddff&quot;&gt;(&lt;/span&gt;&lt;span style=&quot;color: #c792ea&quot;&gt;void&lt;/span&gt; &lt;span style=&quot;color: #89ddff&quot;&gt;*&lt;/span&gt;main_thread_argumentsVoid&lt;span style=&quot;color: #89ddff&quot;&gt;)&lt;/span&gt;&lt;/div&gt;&lt;/div&gt;&lt;/div&gt;" style="text;html=1;strokeColor=none;fillColor=none;align=left;verticalAlign=middle;spacingLeft=4;spacingRight=4;overflow=hidden;rotatable=0;points=[[0,0.5],[1,0.5]];portConstraint=eastwest;" parent="13" vertex="1">
                    <mxGeometry y="129" width="570" height="25" as="geometry"/>
                </mxCell>
                <mxCell id="20" value="&lt;div style=&quot;color: rgb(238, 255, 255); font-family: menlo, monaco, &amp;quot;courier new&amp;quot;, monospace; line-height: 18px;&quot;&gt;&lt;div style=&quot;font-family: &amp;quot;menlo&amp;quot; , &amp;quot;monaco&amp;quot; , &amp;quot;courier new&amp;quot; , monospace ; line-height: 18px&quot;&gt;&lt;div style=&quot;font-family: &amp;quot;menlo&amp;quot; , &amp;quot;monaco&amp;quot; , &amp;quot;courier new&amp;quot; , monospace ; line-height: 18px&quot;&gt;&lt;div style=&quot;font-family: &amp;quot;menlo&amp;quot; , &amp;quot;monaco&amp;quot; , &amp;quot;courier new&amp;quot; , monospace ; line-height: 18px&quot;&gt;&lt;span style=&quot;color: #c792ea&quot;&gt;int&lt;/span&gt; &lt;span style=&quot;color: #82aaff&quot;&gt;main&lt;/span&gt;&lt;span style=&quot;color: #89ddff&quot;&gt;(&lt;/span&gt;&lt;span style=&quot;color: #c792ea&quot;&gt;int&lt;/span&gt; argc&lt;span style=&quot;color: #89ddff&quot;&gt;,&lt;/span&gt; &lt;span style=&quot;color: #c792ea&quot;&gt;char&lt;/span&gt; &lt;span style=&quot;color: #89ddff&quot;&gt;*&lt;/span&gt;argv&lt;span style=&quot;color: #c792ea&quot;&gt;[]&lt;/span&gt;&lt;span style=&quot;color: #89ddff&quot;&gt;)&lt;/span&gt;&lt;/div&gt;&lt;/div&gt;&lt;/div&gt;&lt;/div&gt;" style="text;html=1;strokeColor=none;fillColor=none;align=left;verticalAlign=middle;spacingLeft=4;spacingRight=4;overflow=hidden;rotatable=0;points=[[0,0.5],[1,0.5]];portConstraint=eastwest;" parent="13" vertex="1">
                    <mxGeometry y="154" width="570" height="25" as="geometry"/>
                </mxCell>
                <mxCell id="36" value="Réception de requête" style="edgeStyle=none;html=1;exitX=0.75;exitY=0;exitDx=0;exitDy=0;entryX=0.75;entryY=0;entryDx=0;entryDy=0;" parent="1" target="23" edge="1">
                    <mxGeometry relative="1" as="geometry">
                        <mxPoint x="491" y="430" as="sourcePoint"/>
                    </mxGeometry>
                </mxCell>
                <mxCell id="23" value="wclient" style="swimlane;fontStyle=1;align=center;verticalAlign=middle;childLayout=stackLayout;horizontal=1;startSize=29;horizontalStack=0;resizeParent=1;resizeParentMax=0;resizeLast=0;collapsible=0;marginBottom=0;html=1;shadow=1;" parent="1" vertex="1">
                    <mxGeometry x="259.5" y="498" width="309" height="104" as="geometry"/>
                </mxCell>
                <mxCell id="25" value="&lt;div style=&quot;color: rgb(238, 255, 255); font-family: menlo, monaco, &amp;quot;courier new&amp;quot;, monospace; line-height: 18px;&quot;&gt;&lt;span style=&quot;color: #c792ea&quot;&gt;void&lt;/span&gt; &lt;span style=&quot;color: #82aaff&quot;&gt;client_send&lt;/span&gt;&lt;span style=&quot;color: #89ddff&quot;&gt;(&lt;/span&gt;&lt;span style=&quot;color: #c792ea&quot;&gt;int&lt;/span&gt; fd&lt;span style=&quot;color: #89ddff&quot;&gt;,&lt;/span&gt; &lt;span style=&quot;color: #c792ea&quot;&gt;char&lt;/span&gt; &lt;span style=&quot;color: #89ddff&quot;&gt;*&lt;/span&gt;filename&lt;span style=&quot;color: #89ddff&quot;&gt;)&lt;/span&gt;&lt;/div&gt;" style="text;html=1;strokeColor=none;fillColor=none;align=left;verticalAlign=middle;spacingLeft=4;spacingRight=4;overflow=hidden;rotatable=0;points=[[0,0.5],[1,0.5]];portConstraint=eastwest;" parent="23" vertex="1">
                    <mxGeometry y="29" width="309" height="25" as="geometry"/>
                </mxCell>
                <mxCell id="26" value="&lt;div style=&quot;color: rgb(238, 255, 255); font-family: menlo, monaco, &amp;quot;courier new&amp;quot;, monospace; line-height: 18px;&quot;&gt;&lt;div style=&quot;font-family: &amp;quot;menlo&amp;quot; , &amp;quot;monaco&amp;quot; , &amp;quot;courier new&amp;quot; , monospace ; line-height: 18px&quot;&gt;&lt;span style=&quot;color: #c792ea&quot;&gt;void&lt;/span&gt; &lt;span style=&quot;color: #82aaff&quot;&gt;client_print&lt;/span&gt;&lt;span style=&quot;color: #89ddff&quot;&gt;(&lt;/span&gt;&lt;span style=&quot;color: #c792ea&quot;&gt;int&lt;/span&gt; fd&lt;span style=&quot;color: #89ddff&quot;&gt;)&lt;/span&gt;&lt;/div&gt;&lt;/div&gt;" style="text;html=1;strokeColor=none;fillColor=none;align=left;verticalAlign=middle;spacingLeft=4;spacingRight=4;overflow=hidden;rotatable=0;points=[[0,0.5],[1,0.5]];portConstraint=eastwest;" parent="23" vertex="1">
                    <mxGeometry y="54" width="309" height="25" as="geometry"/>
                </mxCell>
                <mxCell id="27" value="&lt;div style=&quot;color: rgb(238, 255, 255); font-family: menlo, monaco, &amp;quot;courier new&amp;quot;, monospace; line-height: 18px;&quot;&gt;&lt;div style=&quot;font-family: &amp;quot;menlo&amp;quot; , &amp;quot;monaco&amp;quot; , &amp;quot;courier new&amp;quot; , monospace ; line-height: 18px&quot;&gt;&lt;span style=&quot;color: #c792ea&quot;&gt;int&lt;/span&gt; &lt;span style=&quot;color: #82aaff&quot;&gt;main&lt;/span&gt;&lt;span style=&quot;color: #89ddff&quot;&gt;(&lt;/span&gt;&lt;span style=&quot;color: #c792ea&quot;&gt;int&lt;/span&gt; argc&lt;span style=&quot;color: #89ddff&quot;&gt;,&lt;/span&gt; &lt;span style=&quot;color: #c792ea&quot;&gt;char&lt;/span&gt; &lt;span style=&quot;color: #89ddff&quot;&gt;*&lt;/span&gt;argv&lt;span style=&quot;color: #c792ea&quot;&gt;[]&lt;/span&gt;&lt;span style=&quot;color: #89ddff&quot;&gt;)&lt;/span&gt;&lt;/div&gt;&lt;/div&gt;" style="text;html=1;strokeColor=none;fillColor=none;align=left;verticalAlign=middle;spacingLeft=4;spacingRight=4;overflow=hidden;rotatable=0;points=[[0,0.5],[1,0.5]];portConstraint=eastwest;" parent="23" vertex="1">
                    <mxGeometry y="79" width="309" height="25" as="geometry"/>
                </mxCell>
                <mxCell id="31" style="edgeStyle=none;html=1;entryX=0;entryY=0.5;entryDx=0;entryDy=0;dashed=1;dashPattern=1 1;exitX=0;exitY=0.5;exitDx=0;exitDy=0;" parent="1" edge="1" source="23">
                    <mxGeometry relative="1" as="geometry">
                        <Array as="points">
                            <mxPoint x="40" y="550"/>
                            <mxPoint x="40" y="350"/>
                            <mxPoint x="40" y="157"/>
                        </Array>
                        <mxPoint x="50" y="157" as="targetPoint"/>
                    </mxGeometry>
                </mxCell>
                <mxCell id="39" value="include" style="edgeLabel;html=1;align=center;verticalAlign=middle;resizable=0;points=[];" parent="31" vertex="1" connectable="0">
                    <mxGeometry x="-0.3863" y="1" relative="1" as="geometry">
                        <mxPoint x="-28" y="-177" as="offset"/>
                    </mxGeometry>
                </mxCell>
                <mxCell id="33" style="edgeStyle=none;html=1;exitX=0.75;exitY=0;exitDx=0;exitDy=0;entryX=0.45;entryY=1.04;entryDx=0;entryDy=0;dashed=1;dashPattern=1 1;entryPerimeter=0;" parent="1" source="13" target="10" edge="1">
                    <mxGeometry relative="1" as="geometry">
                        <Array as="points">
                            <mxPoint x="557" y="200"/>
                            <mxPoint x="649" y="200"/>
                        </Array>
                    </mxGeometry>
                </mxCell>
                <mxCell id="37" value="include" style="edgeLabel;html=1;align=center;verticalAlign=middle;resizable=0;points=[];" parent="33" vertex="1" connectable="0">
                    <mxGeometry x="-0.6751" relative="1" as="geometry">
                        <mxPoint as="offset"/>
                    </mxGeometry>
                </mxCell>
                <mxCell id="34" style="edgeStyle=none;html=1;exitX=0.25;exitY=0;exitDx=0;exitDy=0;entryX=0.553;entryY=1;entryDx=0;entryDy=0;dashed=1;dashPattern=1 1;entryPerimeter=0;" parent="1" source="13" target="7" edge="1">
                    <mxGeometry relative="1" as="geometry"/>
                </mxCell>
                <mxCell id="38" value="include" style="edgeLabel;html=1;align=center;verticalAlign=middle;resizable=0;points=[];" parent="34" vertex="1" connectable="0">
                    <mxGeometry x="-0.1604" y="1" relative="1" as="geometry">
                        <mxPoint as="offset"/>
                    </mxGeometry>
                </mxCell>
                <mxCell id="35" value="Envoie de requête&amp;nbsp;" style="edgeStyle=none;html=1;" parent="1" edge="1">
                    <mxGeometry relative="1" as="geometry">
                        <mxPoint x="308" y="497" as="sourcePoint"/>
                        <mxPoint x="308" y="430" as="targetPoint"/>
                        <Array as="points"/>
                    </mxGeometry>
                </mxCell>
            </root>
        </mxGraphModel>
    </diagram>
</mxfile>